<mxfile host="app.diagrams.net" modified="2023-08-19T17:06:48.658Z" agent="Mozilla/5.0 (Macintosh; Intel Mac OS X 10_15_7) AppleWebKit/605.1.15 (KHTML, like Gecko) Version/16.6 Safari/605.1.15" etag="gm1dF8VqdwjxQvSMStzF" version="21.6.8" type="device">
  <diagram name="Page-1" id="10a91c8b-09ff-31b1-d368-03940ed4cc9e">
    <mxGraphModel dx="1195" dy="756" grid="1" gridSize="10" guides="1" tooltips="1" connect="1" arrows="1" fold="1" page="1" pageScale="1" pageWidth="1100" pageHeight="850" background="none" math="0" shadow="0">
      <root>
        <mxCell id="0" />
        <mxCell id="1" parent="0" />
        <mxCell id="62893188c0fa7362-1" value="Input&lt;br&gt;[2,3,3,4]" style="whiteSpace=wrap;html=1;rounded=1;shadow=1;labelBackgroundColor=none;strokeWidth=1;fontFamily=Verdana;fontSize=12;align=center;" parent="1" vertex="1">
          <mxGeometry x="600" y="40" width="80" height="40" as="geometry" />
        </mxCell>
        <mxCell id="62893188c0fa7362-2" value="2" style="whiteSpace=wrap;html=1;rounded=1;shadow=1;labelBackgroundColor=none;strokeWidth=1;fontFamily=Verdana;fontSize=12;align=center;" parent="1" vertex="1">
          <mxGeometry x="440" y="120" width="40" height="40" as="geometry" />
        </mxCell>
        <mxCell id="62893188c0fa7362-4" value="" style="rounded=0;html=1;labelBackgroundColor=none;startArrow=none;startFill=0;startSize=5;endArrow=none;endFill=0;endSize=5;jettySize=auto;orthogonalLoop=1;strokeWidth=1;fontFamily=Verdana;fontSize=12;" parent="1" source="62893188c0fa7362-1" target="ubZ3TiYMm8Q_PdwQh25s-27" edge="1">
          <mxGeometry x="-0.3002" y="13" relative="1" as="geometry">
            <mxPoint as="offset" />
            <mxPoint x="880" y="150" as="targetPoint" />
          </mxGeometry>
        </mxCell>
        <mxCell id="62893188c0fa7362-5" value="" style="rounded=0;html=1;labelBackgroundColor=none;startArrow=none;startFill=0;startSize=5;endArrow=none;endFill=0;endSize=5;jettySize=auto;orthogonalLoop=1;strokeWidth=1;fontFamily=Verdana;fontSize=12;strokeColor=default;" parent="1" source="62893188c0fa7362-1" target="62893188c0fa7362-2" edge="1">
          <mxGeometry x="-0.359" y="-11" relative="1" as="geometry">
            <mxPoint as="offset" />
          </mxGeometry>
        </mxCell>
        <mxCell id="62893188c0fa7362-8" value="&lt;span&gt;3&lt;/span&gt;" style="whiteSpace=wrap;html=1;rounded=1;shadow=1;labelBackgroundColor=none;strokeWidth=1;fontFamily=Verdana;fontSize=12;align=center;" parent="1" vertex="1">
          <mxGeometry x="240" y="200" width="40" height="40" as="geometry" />
        </mxCell>
        <mxCell id="62893188c0fa7362-9" value="3" style="whiteSpace=wrap;html=1;rounded=1;shadow=1;labelBackgroundColor=none;strokeWidth=1;fontFamily=Verdana;fontSize=12;align=center;" parent="1" vertex="1">
          <mxGeometry x="320" y="200" width="40" height="40" as="geometry" />
        </mxCell>
        <mxCell id="62893188c0fa7362-12" value="&lt;span&gt;3&lt;/span&gt;" style="whiteSpace=wrap;html=1;rounded=1;shadow=1;labelBackgroundColor=none;strokeWidth=1;fontFamily=Verdana;fontSize=12;align=center;" parent="1" vertex="1">
          <mxGeometry x="200" y="280" width="40" height="40" as="geometry" />
        </mxCell>
        <mxCell id="62893188c0fa7362-14" value="" style="rounded=0;html=1;labelBackgroundColor=none;startArrow=none;startFill=0;startSize=5;endArrow=none;endFill=0;endSize=5;jettySize=auto;orthogonalLoop=1;strokeWidth=1;fontFamily=Verdana;fontSize=12;" parent="1" source="62893188c0fa7362-2" target="62893188c0fa7362-8" edge="1">
          <mxGeometry x="-0.2" y="-14" relative="1" as="geometry">
            <mxPoint as="offset" />
            <mxPoint x="-40" y="190" as="targetPoint" />
          </mxGeometry>
        </mxCell>
        <mxCell id="62893188c0fa7362-15" value="" style="rounded=0;html=1;labelBackgroundColor=none;startArrow=none;startFill=0;startSize=5;endArrow=none;endFill=0;endSize=5;jettySize=auto;orthogonalLoop=1;strokeWidth=1;fontFamily=Verdana;fontSize=12;" parent="1" source="62893188c0fa7362-2" target="62893188c0fa7362-9" edge="1">
          <mxGeometry x="-0.2" y="14" relative="1" as="geometry">
            <mxPoint as="offset" />
            <mxPoint x="340" y="200" as="sourcePoint" />
            <mxPoint x="170" y="270" as="targetPoint" />
          </mxGeometry>
        </mxCell>
        <mxCell id="62893188c0fa7362-18" value="" style="rounded=0;html=1;labelBackgroundColor=none;startArrow=none;startFill=0;startSize=5;endArrow=none;endFill=0;endSize=5;jettySize=auto;orthogonalLoop=1;strokeWidth=1;fontFamily=Verdana;fontSize=12" parent="1" source="62893188c0fa7362-8" target="62893188c0fa7362-12" edge="1">
          <mxGeometry x="-0.2168" y="-14" relative="1" as="geometry">
            <mxPoint as="offset" />
          </mxGeometry>
        </mxCell>
        <mxCell id="ubZ3TiYMm8Q_PdwQh25s-4" value="&lt;span&gt;3&lt;/span&gt;" style="whiteSpace=wrap;html=1;rounded=1;shadow=1;labelBackgroundColor=none;strokeWidth=1;fontFamily=Verdana;fontSize=12;align=center;" vertex="1" parent="1">
          <mxGeometry x="540" y="120" width="40" height="40" as="geometry" />
        </mxCell>
        <mxCell id="ubZ3TiYMm8Q_PdwQh25s-6" value="&lt;span&gt;4&lt;/span&gt;" style="whiteSpace=wrap;html=1;rounded=1;shadow=1;labelBackgroundColor=none;strokeWidth=1;fontFamily=Verdana;fontSize=12;align=center;imageHeight=20;" vertex="1" parent="1">
          <mxGeometry x="560" y="200" width="40" height="40" as="geometry" />
        </mxCell>
        <mxCell id="ubZ3TiYMm8Q_PdwQh25s-8" value="" style="rounded=0;html=1;labelBackgroundColor=none;startArrow=none;startFill=0;startSize=5;endArrow=none;endFill=0;endSize=5;jettySize=auto;orthogonalLoop=1;strokeWidth=1;fontFamily=Verdana;fontSize=12" edge="1" parent="1" source="ubZ3TiYMm8Q_PdwQh25s-4" target="ubZ3TiYMm8Q_PdwQh25s-6">
          <mxGeometry x="-0.1294" y="17" relative="1" as="geometry">
            <mxPoint as="offset" />
          </mxGeometry>
        </mxCell>
        <mxCell id="ubZ3TiYMm8Q_PdwQh25s-13" value="" style="rounded=0;html=1;labelBackgroundColor=none;startArrow=none;startFill=0;startSize=5;endArrow=none;endFill=0;endSize=5;jettySize=auto;orthogonalLoop=1;strokeWidth=1;fontFamily=Verdana;fontSize=12" edge="1" parent="1" target="ubZ3TiYMm8Q_PdwQh25s-11">
          <mxGeometry x="-0.1294" y="17" relative="1" as="geometry">
            <mxPoint as="offset" />
            <mxPoint x="1098.181818181818" y="220" as="sourcePoint" />
          </mxGeometry>
        </mxCell>
        <mxCell id="ubZ3TiYMm8Q_PdwQh25s-16" value="&lt;span&gt;3&lt;/span&gt;" style="whiteSpace=wrap;html=1;rounded=1;shadow=1;labelBackgroundColor=none;strokeWidth=1;fontFamily=Verdana;fontSize=12;align=center;imageHeight=20;" vertex="1" parent="1">
          <mxGeometry x="480" y="200" width="40" height="40" as="geometry" />
        </mxCell>
        <mxCell id="ubZ3TiYMm8Q_PdwQh25s-17" value="" style="rounded=0;html=1;labelBackgroundColor=none;startArrow=none;startFill=0;startSize=5;endArrow=none;endFill=0;endSize=5;jettySize=auto;orthogonalLoop=1;strokeWidth=1;fontFamily=Verdana;fontSize=12;" edge="1" parent="1" target="ubZ3TiYMm8Q_PdwQh25s-16" source="ubZ3TiYMm8Q_PdwQh25s-4">
          <mxGeometry x="-0.1294" y="17" relative="1" as="geometry">
            <mxPoint as="offset" />
            <mxPoint x="590" y="170" as="sourcePoint" />
          </mxGeometry>
        </mxCell>
        <mxCell id="ubZ3TiYMm8Q_PdwQh25s-18" value="&lt;span&gt;3&lt;/span&gt;" style="whiteSpace=wrap;html=1;rounded=1;shadow=1;labelBackgroundColor=none;strokeWidth=1;fontFamily=Verdana;fontSize=12;align=center;" vertex="1" parent="1">
          <mxGeometry x="700" y="120" width="40" height="40" as="geometry" />
        </mxCell>
        <mxCell id="ubZ3TiYMm8Q_PdwQh25s-27" value="&lt;span&gt;4&lt;/span&gt;" style="whiteSpace=wrap;html=1;rounded=1;shadow=1;labelBackgroundColor=none;strokeWidth=1;fontFamily=Verdana;fontSize=12;align=center;" vertex="1" parent="1">
          <mxGeometry x="800" y="120" width="40" height="40" as="geometry" />
        </mxCell>
        <mxCell id="ubZ3TiYMm8Q_PdwQh25s-36" value="" style="rounded=0;html=1;labelBackgroundColor=none;startArrow=none;startFill=0;startSize=5;endArrow=none;endFill=0;endSize=5;jettySize=auto;orthogonalLoop=1;strokeWidth=1;fontFamily=Verdana;fontSize=12;" edge="1" parent="1" source="62893188c0fa7362-1" target="ubZ3TiYMm8Q_PdwQh25s-18">
          <mxGeometry x="-0.3002" y="13" relative="1" as="geometry">
            <mxPoint as="offset" />
            <mxPoint x="670" y="150" as="sourcePoint" />
            <mxPoint x="690" y="160" as="targetPoint" />
          </mxGeometry>
        </mxCell>
        <mxCell id="ubZ3TiYMm8Q_PdwQh25s-37" value="" style="rounded=0;html=1;labelBackgroundColor=none;startArrow=none;startFill=0;startSize=5;endArrow=none;endFill=0;endSize=5;jettySize=auto;orthogonalLoop=1;strokeWidth=1;fontFamily=Verdana;fontSize=12;" edge="1" parent="1" source="62893188c0fa7362-1" target="ubZ3TiYMm8Q_PdwQh25s-4">
          <mxGeometry x="-0.3002" y="13" relative="1" as="geometry">
            <mxPoint as="offset" />
            <mxPoint x="640" y="130" as="sourcePoint" />
            <mxPoint x="640" y="150" as="targetPoint" />
          </mxGeometry>
        </mxCell>
        <mxCell id="ubZ3TiYMm8Q_PdwQh25s-41" value="4" style="whiteSpace=wrap;html=1;rounded=1;shadow=1;labelBackgroundColor=none;strokeWidth=1;fontFamily=Verdana;fontSize=12;align=center;" vertex="1" parent="1">
          <mxGeometry x="400" y="200" width="40" height="40" as="geometry" />
        </mxCell>
        <mxCell id="ubZ3TiYMm8Q_PdwQh25s-42" value="" style="rounded=0;html=1;labelBackgroundColor=none;startArrow=none;startFill=0;startSize=5;endArrow=none;endFill=0;endSize=5;jettySize=auto;orthogonalLoop=1;strokeWidth=1;fontFamily=Verdana;fontSize=12;" edge="1" parent="1" source="62893188c0fa7362-2" target="ubZ3TiYMm8Q_PdwQh25s-41">
          <mxGeometry x="-0.2" y="14" relative="1" as="geometry">
            <mxPoint as="offset" />
            <mxPoint x="270" y="170" as="sourcePoint" />
            <mxPoint x="290" y="210" as="targetPoint" />
          </mxGeometry>
        </mxCell>
        <mxCell id="ubZ3TiYMm8Q_PdwQh25s-46" value="&lt;span&gt;4&lt;/span&gt;" style="whiteSpace=wrap;html=1;rounded=1;shadow=1;labelBackgroundColor=none;strokeWidth=1;fontFamily=Verdana;fontSize=12;align=center;" vertex="1" parent="1">
          <mxGeometry x="260" y="280" width="40" height="40" as="geometry" />
        </mxCell>
        <mxCell id="ubZ3TiYMm8Q_PdwQh25s-47" value="Target=6" style="text;html=1;align=center;verticalAlign=middle;resizable=0;points=[];autosize=1;strokeColor=none;fillColor=none;" vertex="1" parent="1">
          <mxGeometry x="600" y="86" width="80" height="30" as="geometry" />
        </mxCell>
        <mxCell id="ubZ3TiYMm8Q_PdwQh25s-49" value="" style="rounded=0;html=1;labelBackgroundColor=none;startArrow=none;startFill=0;startSize=5;endArrow=none;endFill=0;endSize=5;jettySize=auto;orthogonalLoop=1;strokeWidth=1;fontFamily=Verdana;fontSize=12" edge="1" parent="1" source="62893188c0fa7362-8" target="ubZ3TiYMm8Q_PdwQh25s-46">
          <mxGeometry x="-0.2842" y="12" relative="1" as="geometry">
            <mxPoint as="offset" />
            <mxPoint x="150" y="290" as="sourcePoint" />
            <mxPoint x="150" y="370" as="targetPoint" />
          </mxGeometry>
        </mxCell>
        <mxCell id="ubZ3TiYMm8Q_PdwQh25s-60" value="" style="html=1;verticalLabelPosition=bottom;labelBackgroundColor=#ffffff;verticalAlign=top;shadow=0;dashed=0;strokeWidth=2;shape=mxgraph.ios7.misc.check;strokeColor=#0080f0;" vertex="1" parent="1">
          <mxGeometry x="430" y="247" width="10" height="8" as="geometry" />
        </mxCell>
        <mxCell id="ubZ3TiYMm8Q_PdwQh25s-62" value="X" style="text;html=1;align=center;verticalAlign=middle;resizable=0;points=[];autosize=1;strokeColor=none;fillColor=none;fontColor=#FF6666;" vertex="1" parent="1">
          <mxGeometry x="216" y="317" width="30" height="30" as="geometry" />
        </mxCell>
        <mxCell id="ubZ3TiYMm8Q_PdwQh25s-63" value="X" style="text;html=1;align=center;verticalAlign=middle;resizable=0;points=[];autosize=1;strokeColor=none;fillColor=none;fontColor=#FF6666;" vertex="1" parent="1">
          <mxGeometry x="280" y="317" width="30" height="30" as="geometry" />
        </mxCell>
        <mxCell id="ubZ3TiYMm8Q_PdwQh25s-64" value="" style="html=1;verticalLabelPosition=bottom;labelBackgroundColor=#ffffff;verticalAlign=top;shadow=0;dashed=0;strokeWidth=2;shape=mxgraph.ios7.misc.check;strokeColor=#0080f0;" vertex="1" parent="1">
          <mxGeometry x="512" y="246" width="10" height="8" as="geometry" />
        </mxCell>
        <mxCell id="ubZ3TiYMm8Q_PdwQh25s-66" value="" style="shape=image;html=1;verticalAlign=top;verticalLabelPosition=bottom;labelBackgroundColor=#ffffff;imageAspect=0;aspect=fixed;image=https://cdn4.iconfinder.com/data/icons/evil-icons-user-interface/64/download-128.png" vertex="1" parent="1">
          <mxGeometry x="731" y="160" width="18" height="18" as="geometry" />
        </mxCell>
        <mxCell id="ubZ3TiYMm8Q_PdwQh25s-67" value="" style="shape=image;html=1;verticalAlign=top;verticalLabelPosition=bottom;labelBackgroundColor=#ffffff;imageAspect=0;aspect=fixed;image=https://cdn4.iconfinder.com/data/icons/evil-icons-user-interface/64/download-128.png" vertex="1" parent="1">
          <mxGeometry x="342" y="240" width="18" height="18" as="geometry" />
        </mxCell>
        <mxCell id="ubZ3TiYMm8Q_PdwQh25s-68" value="X" style="text;html=1;align=center;verticalAlign=middle;resizable=0;points=[];autosize=1;strokeColor=none;fillColor=none;fontColor=#FF6666;" vertex="1" parent="1">
          <mxGeometry x="581" y="236" width="30" height="30" as="geometry" />
        </mxCell>
      </root>
    </mxGraphModel>
  </diagram>
</mxfile>
